<svg xmlns="http://www.w3.org/2000/svg">

	<symbol id="logo" viewBox="0 0 160 35">
		<path d="M26.639 9.057v25.3h-4.131l-.499-3.075c-2.256 2.318-5.404 3.707-9.035 3.707C5.55 34.987 0 29.29 0 21.71 0 14.104 5.55 8.453 12.974 8.453c3.673 0 6.852 1.408 9.114 3.767l.599-3.164h3.952zm-5.133 12.651c0-4.767-3.433-8.301-8.129-8.301-4.695 0-8.162 3.563-8.162 8.301 0 4.736 3.464 8.302 8.162 8.302 4.699 0 8.129-3.534 8.129-8.302zM56.806 0v34.37h-3.873l-.66-2.869C50.033 33.694 46.971 35 43.475 35c-7.535 0-12.953-5.697-12.953-13.28 0-7.617 5.418-13.268 12.953-13.268 3.198 0 6.033 1.084 8.208 2.944V0h5.123zM43.879 30.02c4.695 0 8.162-3.597 8.162-8.3 0-4.737-3.464-8.302-8.162-8.302s-8.128 3.533-8.128 8.301c0 4.768 3.432 8.302 8.128 8.302zM76.895 29.646v4.725h-3.807c-5.457 0-8.827-3.421-8.827-9.008V13.525h-4.455v-1.007l8.666-9.356h.872v5.905h7.414v4.455h-7.374V24.95c0 3.017 1.653 4.696 4.67 4.696h2.841zM95.33 8.928v4.912h-2.705c-4.237 0-6.351 2.453-6.351 7.036v13.492H81.15V9.07h3.464l.868 3.453c1.782-2.398 4.226-3.595 7.63-3.595h2.217zM122.736 9.057v25.3h-4.131l-.499-3.075c-2.256 2.318-5.404 3.707-9.035 3.707-7.421 0-12.974-5.696-12.974-13.28 0-7.604 5.55-13.255 12.974-13.255 3.673 0 6.852 1.408 9.115 3.767l.598-3.164h3.952zM117.6 21.708c0-4.767-3.432-8.301-8.128-8.301s-8.163 3.566-8.163 8.301c0 4.736 3.465 8.302 8.163 8.302 4.696-.003 8.128-3.534 8.128-8.302zM135.434 23.577h-3.106V34.37h-5.123V0h5.123v18.852h3.142l6.726-9.785h6.072l-8.437 12.143 9.333 13.158h-6.261l-7.469-10.791z" fill="#12284C"></path>
		<path d="M155.887 35c2.272 0 4.113-1.87 4.113-4.176 0-2.307-1.841-4.177-4.113-4.177-2.271 0-4.113 1.87-4.113 4.177 0 2.306 1.842 4.176 4.113 4.176z" fill="#FF6B4A"></path>
	</symbol>

	<symbol id="page" viewBox="0 0 16 16">
		<path d="M5.5 7a.5.5 0 0 0 0 1h5a.5.5 0 0 0 0-1h-5zM5 9.5a.5.5 0 0 1 .5-.5h5a.5.5 0 0 1 0 1h-5a.5.5 0 0 1-.5-.5zm0 2a.5.5 0 0 1 .5-.5h2a.5.5 0 0 1 0 1h-2a.5.5 0 0 1-.5-.5z"/>
		<path d="M9.5 0H4a2 2 0 0 0-2 2v12a2 2 0 0 0 2 2h8a2 2 0 0 0 2-2V4.5L9.5 0zm0 1v2A1.5 1.5 0 0 0 11 4.5h2V14a1 1 0 0 1-1 1H4a1 1 0 0 1-1-1V2a1 1 0 0 1 1-1h5.5z"/>
	</symbol>

	<symbol id="blog" viewBox="0 0 16 16">
		<path d="M5 10.5a.5.5 0 0 1 .5-.5h2a.5.5 0 0 1 0 1h-2a.5.5 0 0 1-.5-.5zm0-2a.5.5 0 0 1 .5-.5h5a.5.5 0 0 1 0 1h-5a.5.5 0 0 1-.5-.5zm0-2a.5.5 0 0 1 .5-.5h5a.5.5 0 0 1 0 1h-5a.5.5 0 0 1-.5-.5zm0-2a.5.5 0 0 1 .5-.5h5a.5.5 0 0 1 0 1h-5a.5.5 0 0 1-.5-.5z"/>
		<path d="M3 0h10a2 2 0 0 1 2 2v12a2 2 0 0 1-2 2H3a2 2 0 0 1-2-2v-1h1v1a1 1 0 0 0 1 1h10a1 1 0 0 0 1-1V2a1 1 0 0 0-1-1H3a1 1 0 0 0-1 1v1H1V2a2 2 0 0 1 2-2z"/>
		<path d="M1 5v-.5a.5.5 0 0 1 1 0V5h.5a.5.5 0 0 1 0 1h-2a.5.5 0 0 1 0-1H1zm0 3v-.5a.5.5 0 0 1 1 0V8h.5a.5.5 0 0 1 0 1h-2a.5.5 0 0 1 0-1H1zm0 3v-.5a.5.5 0 0 1 1 0v.5h.5a.5.5 0 0 1 0 1h-2a.5.5 0 0 1 0-1H1z"/>
	</symbol>

	<symbol id="signpost" viewBox="0 0 16 16">
  		<path d="M7 1.414V2H2a1 1 0 0 0-1 1v2a1 1 0 0 0 1 1h5v1H2.5a1 1 0 0 0-.8.4L.725 8.7a.5.5 0 0 0 0 .6l.975 1.3a1 1 0 0 0 .8.4H7v5h2v-5h5a1 1 0 0 0 1-1V8a1 1 0 0 0-1-1H9V6h4.5a1 1 0 0 0 .8-.4l.975-1.3a.5.5 0 0 0 0-.6L14.3 2.4a1 1 0 0 0-.8-.4H9v-.586a1 1 0 0 0-2 0zM13.5 3l.75 1-.75 1H2V3h11.5zm.5 5v2H2.5l-.75-1 .75-1H14z"/>
	</symbol>

	<symbol id="migrate" viewBox="0 0 16 16">
		<path fill-rule="evenodd" d="M1 11.5a.5.5 0 0 0 .5.5h11.793l-3.147 3.146a.5.5 0 0 0 .708.708l4-4a.5.5 0 0 0 0-.708l-4-4a.5.5 0 0 0-.708.708L13.293 11H1.5a.5.5 0 0 0-.5.5zm14-7a.5.5 0 0 1-.5.5H2.707l3.147 3.146a.5.5 0 1 1-.708.708l-4-4a.5.5 0 0 1 0-.708l4-4a.5.5 0 1 1 .708.708L2.707 4H14.5a.5.5 0 0 1 .5.5z"/>
	</symbol>

	<symbol id="menu" viewBox="0 0 16 16">
		<path d="M7.646.146a.5.5 0 0 1 .708 0L10.207 2H14a2 2 0 0 1 2 2v9a2 2 0 0 1-2 2H2a2 2 0 0 1-2-2V4a2 2 0 0 1 2-2h3.793L7.646.146zM1 7v3h14V7H1zm14-1V4a1 1 0 0 0-1-1h-3.793a1 1 0 0 1-.707-.293L8 1.207l-1.5 1.5A1 1 0 0 1 5.793 3H2a1 1 0 0 0-1 1v2h14zm0 5H1v2a1 1 0 0 0 1 1h12a1 1 0 0 0 1-1v-2zM2 4.5a.5.5 0 0 1 .5-.5h8a.5.5 0 0 1 0 1h-8a.5.5 0 0 1-.5-.5zm0 4a.5.5 0 0 1 .5-.5h11a.5.5 0 0 1 0 1h-11a.5.5 0 0 1-.5-.5zm0 4a.5.5 0 0 1 .5-.5h6a.5.5 0 0 1 0 1h-6a.5.5 0 0 1-.5-.5z"/>
	</symbol>

	<symbol id="settings" viewBox="0 0 16 16">
		<path d="M8 4.754a3.246 3.246 0 1 0 0 6.492 3.246 3.246 0 0 0 0-6.492zM5.754 8a2.246 2.246 0 1 1 4.492 0 2.246 2.246 0 0 1-4.492 0z"/>
		<path d="M9.796 1.343c-.527-1.79-3.065-1.79-3.592 0l-.094.319a.873.873 0 0 1-1.255.52l-.292-.16c-1.64-.892-3.433.902-2.54 2.541l.159.292a.873.873 0 0 1-.52 1.255l-.319.094c-1.79.527-1.79 3.065 0 3.592l.319.094a.873.873 0 0 1 .52 1.255l-.16.292c-.892 1.64.901 3.434 2.541 2.54l.292-.159a.873.873 0 0 1 1.255.52l.094.319c.527 1.79 3.065 1.79 3.592 0l.094-.319a.873.873 0 0 1 1.255-.52l.292.16c1.64.893 3.434-.902 2.54-2.541l-.159-.292a.873.873 0 0 1 .52-1.255l.319-.094c1.79-.527 1.79-3.065 0-3.592l-.319-.094a.873.873 0 0 1-.52-1.255l.16-.292c.893-1.64-.902-3.433-2.541-2.54l-.292.159a.873.873 0 0 1-1.255-.52l-.094-.319zm-2.633.283c.246-.835 1.428-.835 1.674 0l.094.319a1.873 1.873 0 0 0 2.693 1.115l.291-.16c.764-.415 1.6.42 1.184 1.185l-.159.292a1.873 1.873 0 0 0 1.116 2.692l.318.094c.835.246.835 1.428 0 1.674l-.319.094a1.873 1.873 0 0 0-1.115 2.693l.16.291c.415.764-.42 1.6-1.185 1.184l-.291-.159a1.873 1.873 0 0 0-2.693 1.116l-.094.318c-.246.835-1.428.835-1.674 0l-.094-.319a1.873 1.873 0 0 0-2.692-1.115l-.292.16c-.764.415-1.6-.42-1.184-1.185l.159-.291A1.873 1.873 0 0 0 1.945 8.93l-.319-.094c-.835-.246-.835-1.428 0-1.674l.319-.094A1.873 1.873 0 0 0 3.06 4.377l-.16-.292c-.415-.764.42-1.6 1.185-1.184l.292.159a1.873 1.873 0 0 0 2.692-1.115l.094-.319z"/>
	</symbol>

	<symbol id="text-window" viewBox="0 0 16 16">
		<path d="M13 6.5a.5.5 0 0 0-.5-.5h-5a.5.5 0 0 0 0 1h5a.5.5 0 0 0 .5-.5zm0 3a.5.5 0 0 0-.5-.5h-5a.5.5 0 0 0 0 1h5a.5.5 0 0 0 .5-.5zm-.5 2.5a.5.5 0 0 1 0 1h-5a.5.5 0 0 1 0-1h5z"/>
		<path d="M14 0a2 2 0 0 1 2 2v12a2 2 0 0 1-2 2H2a2 2 0 0 1-2-2V2a2 2 0 0 1 2-2h12zM2 1a1 1 0 0 0-1 1v1h14V2a1 1 0 0 0-1-1H2zM1 4v10a1 1 0 0 0 1 1h2V4H1zm4 0v11h9a1 1 0 0 0 1-1V4H5z"/>
	</symbol>

	<symbol id="marketing" viewBox="0 0 16 16">
  		<path d="M13 2.5a1.5 1.5 0 0 1 3 0v11a1.5 1.5 0 0 1-3 0v-.214c-2.162-1.241-4.49-1.843-6.912-2.083l.405 2.712A1 1 0 0 1 5.51 15.1h-.548a1 1 0 0 1-.916-.599l-1.85-3.49a68.14 68.14 0 0 0-.202-.003A2.014 2.014 0 0 1 0 9V7a2.02 2.02 0 0 1 1.992-2.013 74.663 74.663 0 0 0 2.483-.075c3.043-.154 6.148-.849 8.525-2.199V2.5zm1 0v11a.5.5 0 0 0 1 0v-11a.5.5 0 0 0-1 0zm-1 1.35c-2.344 1.205-5.209 1.842-8 2.033v4.233c.18.01.359.022.537.036 2.568.189 5.093.744 7.463 1.993V3.85zm-9 6.215v-4.13a95.09 95.09 0 0 1-1.992.052A1.02 1.02 0 0 0 1 7v2c0 .55.448 1.002 1.006 1.009A60.49 60.49 0 0 1 4 10.065zm-.657.975 1.609 3.037.01.024h.548l-.002-.014-.443-2.966a68.019 68.019 0 0 0-1.722-.082z"/>
	</symbol>

	<symbol id="search" viewBox="0 0 16 16">
		<path d="M11.742 10.344a6.5 6.5 0 1 0-1.397 1.398h-.001c.03.04.062.078.098.115l3.85 3.85a1 1 0 0 0 1.415-1.414l-3.85-3.85a1.007 1.007 0 0 0-.115-.1zM12 6.5a5.5 5.5 0 1 1-11 0 5.5 5.5 0 0 1 11 0z"/>
	</symbol>

	<svg id="gitlab-old" viewBox="0 0 155.77 150">
		<path d="M153.17 59.37l-.21-.56-21.2-55.3c-.43-1.09-1.19-2.01-2.18-2.63-2.6-1.67-6.07-.91-7.74 1.7-.3.46-.52.97-.67 1.5l-14.31 43.81H48.91L34.6 4.08A5.61 5.61 0 0 0 27.67.22c-.52.15-1.02.37-1.48.66-.99.62-1.75 1.54-2.18 2.63L2.82 58.82l-.22.55a39.36 39.36 0 0 0 13.06 45.49l.08.06.18.14 32.25 24.17 16 12.09 9.72 7.35a6.57 6.57 0 0 0 7.92 0l9.72-7.35 16-12.09 32.48-24.31.09-.07c14-10.56 19.33-29.1 13.07-45.48z"></path>
	</svg>

	<svg id="deployhq-old" viewBox="0 0 31.29 39.06">
		<path d="M7.82,31.25v-7.81L0,31.25H7.82Zm15.65,0h-7.82V7.81h7.82V31.25Z"></path>
		<path d="M23.47 39.06H7.82l7.82-7.81 7.82 7.81zM7.82 11.72a3.91 3.91 0 1 0 7.82 0h0a3.91 3.91 0 0 0-3.91-3.91h0a3.91 3.91 0 0 0-3.91 3.91"></path>
		<path d="M23.47,31.25h7.82l-7.82-7.81v7.81ZM15.65,0l7.82,7.81H7.82L15.65,0Zm0,31.25H7.82V15.63h7.82v15.62Z"></path>
	</svg>

	<svg id="salesforce-old" viewBox="0 0 272.14 190.53">
		<path d="M113.24 20.75c8.78-9.14 21-14.8 34.5-14.8 18 0 33.6 10 42 24.9 7.46-3.33 15.53-5.05 23.7-5.05 32.4 0 58.7 26.5 58.7 59.2s-26.3 59.2-58.7 59.2c-3.96 0-7.82-.4-11.6-1.15-7.35 13.1-21.4 22-37.4 22a42.84 42.84 0 0 1-18.8-4.32c-7.45 17.5-24.8 29.8-45 29.8s-39-13.3-45.9-32a45.08 45.08 0 0 1-9.34.97C20.3 159.5 0 138.9 0 113.6c0-17 9.14-31.8 22.7-39.8a52.53 52.53 0 0 1-4.35-21c0-29.2 23.7-52.8 52.9-52.8 17.1 0 32.4 8.15 42 20.8" fill-rule="evenodd"/>
	</svg>

	<svg id="salesforce" viewBox="0 0 24 24">
		<path fill-rule="evenodd" clip-rule="evenodd" d="M10.19 6.09C10.89 5.36 11.86 4.92 12.93 4.92C14.36 4.92 15.6 5.71 16.26 6.9C16.85 6.64 17.49 6.5 18.14 6.5C20.71 6.5 22.8 8.6 22.8 11.2C22.8 13.8 20.71 15.9 18.14 15.9C17.83 15.9 17.52 15.87 17.22 15.81C16.64 16.85 15.52 17.56 14.25 17.56C13.73 17.56 13.22 17.44 12.76 17.22C12.17 18.61 10.79 19.59 9.19 19.59C7.59 19.59 6.09 18.53 5.55 17.05C5.31 17.1 5.06 17.13 4.81 17.13C2.82 17.13 1.21 15.49 1.21 13.49C1.21 12.14 1.94 10.97 3.01 10.33C2.78 9.8 2.66 9.24 2.66 8.66C2.66 6.34 4.54 4.47 6.86 4.47C8.22 4.47 9.43 5.12 10.19 6.12"/>
	</svg>

	<svg id="deployhq" viewBox="0 0 24 24">
		<path d="M7.49 18.75V14.25L2.99 18.75H7.49ZM16.5 18.75H12V5.25H16.5V18.75Z"/>
		<path d="M16.51 23.25H7.49L11.99 18.75L16.49 23.25H16.51ZM7.49 7.5C7.49 8.74 8.5 9.75 9.74 9.75C10.98 9.75 11.99 8.74 11.99 7.5C11.99 6.26 10.98 5.25 9.74 5.25C8.5 5.25 7.49 6.26 7.49 7.5Z"/>
		<path d="M16.51 18.75H21.01L16.51 14.25V18.75ZM12 0.75L16.5 5.25H7.49L12 0.75ZM12 18.75H7.49V9.75H11.99V18.75H12Z"/>
	</svg>

	<svg id="gitlab" viewBox="0 0 24 24">
		<path d="M20.73 10.19L20.71 10.13L18.25 3.70999C18.2 3.57999 18.11 3.47999 18 3.39999C17.7 3.20999 17.3 3.28999 17.1 3.59999C17.07 3.64999 17.04 3.70999 17.02 3.76999L15.36 8.84999H8.64L6.98 3.76999C6.88 3.41999 6.52 3.21999 6.18 3.31999C6.12 3.33999 6.06 3.35999 6.01 3.39999C5.9 3.46999 5.81 3.57999 5.76 3.70999L3.3 10.13L3.27 10.19C2.54 12.09 3.16 14.24 4.79 15.47L4.81 15.49L8.55 18.29L10.41 19.69L11.54 20.54C11.81 20.75 12.19 20.75 12.46 20.54L13.59 19.69L15.45 18.29L19.22 15.47H19.23C20.85 14.24 21.47 12.09 20.75 10.19H20.73Z"/>
	</svg>

</svg>